<svg version="1.1" id="Layer_1" xmlns="http://www.w3.org/2000/svg" xmlns:xlink="http://www.w3.org/1999/xlink" x="0px" y="0px"
	 width="100%" viewBox="0 0 225 225" enable-background="new 0 0 225 225" xml:space="preserve">
<path fill="#D9E8FB" opacity="1.000000" stroke="none" 
	d="
M126.000000,226.000000 
	C84.000000,226.000000 42.500004,226.000000 1.000005,226.000000 
	C1.000004,151.000000 1.000004,76.000015 1.000002,1.000016 
	C75.999992,1.000010 150.999985,1.000010 225.999969,1.000005 
	C225.999985,75.999985 225.999985,150.999969 226.000000,225.999969 
	C192.833328,226.000000 159.666672,226.000000 126.000000,226.000000 
M81.316620,185.484131 
	C81.518433,187.874115 81.034088,190.608749 82.033371,192.598175 
	C88.536232,205.544342 99.516037,211.955582 113.734886,211.854675 
	C127.925964,211.753998 138.913467,205.315887 145.218185,192.253647 
	C146.178635,190.263748 145.281433,187.377197 144.949203,184.231171 
	C141.463882,180.716919 138.226501,181.601089 135.054367,184.732773 
	C129.328796,190.385330 122.704102,194.016403 114.417526,194.220032 
	C105.577980,194.437241 98.438232,190.922043 92.204941,184.920471 
	C87.998901,180.870819 85.653221,180.995056 81.316620,185.484131 
M16.072622,125.470200 
	C15.982421,136.671661 19.067743,147.075684 24.017006,157.005203 
	C26.920708,162.830780 30.923967,168.050964 37.197124,169.892105 
	C45.213566,172.244888 53.557625,174.495667 61.827602,174.770462 
	C82.439224,175.455322 103.089874,175.125488 123.722862,174.957703 
	C140.825562,174.818649 157.935410,174.578827 175.022278,173.891113 
	C183.632523,173.544571 192.198547,171.157211 197.855331,164.330032 
	C207.302383,152.928360 210.998062,139.247589 210.690323,123.655205 
	C210.995911,120.507111 211.429901,117.365379 211.586365,114.209892 
	C212.634476,93.070686 213.184906,71.930908 209.022507,51.019138 
	C206.266113,37.171005 198.422012,27.502453 184.639954,23.359819 
	C178.765289,21.594006 172.781754,20.056564 166.746948,18.980228 
	C138.200500,13.888850 109.412689,13.328195 80.673363,16.284948 
	C67.363716,17.654268 54.136208,20.669310 41.140427,23.990664 
	C29.436054,26.981968 21.898987,35.403538 19.166330,47.056614 
	C17.015148,56.230061 15.424992,65.732811 15.229649,75.123482 
	C14.887568,91.568321 15.806673,108.039391 16.072622,125.470200 
z"/>
<path fill="#4D4D87" opacity="1.000000" stroke="none" 
	d="
M16.197397,124.499474 
	C15.806673,108.039391 14.887568,91.568321 15.229649,75.123482 
	C15.424992,65.732811 17.015148,56.230061 19.166330,47.056614 
	C21.898987,35.403538 29.436054,26.981968 41.140427,23.990664 
	C54.136208,20.669310 67.363716,17.654268 80.673363,16.284948 
	C109.412689,13.328195 138.200500,13.888850 166.746948,18.980228 
	C172.781754,20.056564 178.765289,21.594006 184.639954,23.359819 
	C198.422012,27.502453 206.266113,37.171005 209.022507,51.019138 
	C213.184906,71.930908 212.634476,93.070686 211.586365,114.209892 
	C211.429901,117.365379 210.995911,120.507111 210.513748,124.422699 
	C208.184265,144.491531 198.480179,157.337402 178.908707,161.444962 
	C170.298309,163.252060 161.629349,164.912659 152.909439,166.040039 
	C129.048859,169.124893 105.064751,169.365173 81.184837,166.810532 
	C68.355713,165.438126 55.567371,162.888062 43.031982,159.776276 
	C28.694683,156.217194 20.844698,145.945816 17.878344,131.722443 
	C17.373791,129.303162 16.760469,126.906555 16.197397,124.499474 
M88.062828,111.422958 
	C94.440742,101.252541 91.844154,90.055405 91.082298,79.324608 
	C90.439575,70.271614 82.308922,64.476067 73.622543,65.109131 
	C64.754280,65.755463 58.212620,72.884712 58.077625,82.180923 
	C57.993046,88.005035 58.127270,93.832306 58.044041,99.656456 
	C57.933422,107.397232 61.025295,113.230377 68.156288,116.507713 
	C74.967346,119.638008 81.355995,118.052292 88.062828,111.422958 
M135.255798,85.706306 
	C135.430832,91.839752 135.047775,98.053169 135.912460,104.087799 
	C137.191620,113.015114 145.002426,118.678734 153.722092,117.906471 
	C162.109665,117.163620 168.684311,110.208260 168.900101,101.539185 
	C169.069580,94.728935 169.166107,87.901146 168.879196,81.098679 
	C168.356232,68.699280 155.016678,61.154530 144.211899,67.116592 
	C137.336258,70.910576 135.057251,77.268684 135.255798,85.706306 
z"/>
<path fill="#BDD8F7" opacity="1.000000" stroke="none" 
	d="
M16.135010,124.984833 
	C16.760469,126.906555 17.373791,129.303162 17.878344,131.722443 
	C20.844698,145.945816 28.694683,156.217194 43.031982,159.776276 
	C55.567371,162.888062 68.355713,165.438126 81.184837,166.810532 
	C105.064751,169.365173 129.048859,169.124893 152.909439,166.040039 
	C161.629349,164.912659 170.298309,163.252060 178.908707,161.444962 
	C198.480179,157.337402 208.184265,144.491531 210.569946,124.845810 
	C210.998062,139.247589 207.302383,152.928360 197.855331,164.330032 
	C192.198547,171.157211 183.632523,173.544571 175.022278,173.891113 
	C157.935410,174.578827 140.825562,174.818649 123.722862,174.957703 
	C103.089874,175.125488 82.439224,175.455322 61.827602,174.770462 
	C53.557625,174.495667 45.213566,172.244888 37.197124,169.892105 
	C30.923967,168.050964 26.920708,162.830780 24.017006,157.005203 
	C19.067743,147.075684 15.982421,136.671661 16.135010,124.984833 
z"/>
<path fill="#4F4F89" opacity="1.000000" stroke="none" 
	d="
M145.243439,184.905380 
	C145.281433,187.377197 146.178635,190.263748 145.218185,192.253647 
	C138.913467,205.315887 127.925964,211.753998 113.734886,211.854675 
	C99.516037,211.955582 88.536232,205.544342 82.033371,192.598175 
	C81.034088,190.608749 81.518433,187.874115 81.893639,185.422791 
	C83.396561,186.530640 84.342056,187.684891 85.245323,188.871307 
	C94.588287,201.142990 109.424240,205.883041 124.188782,201.451767 
	C133.411514,198.683746 139.913696,192.568466 145.243439,184.905380 
z"/>
<path fill="#40436F" opacity="1.000000" stroke="none" 
	d="
M145.096313,184.568268 
	C139.913696,192.568466 133.411514,198.683746 124.188782,201.451767 
	C109.424240,205.883041 94.588287,201.142990 85.245323,188.871307 
	C84.342056,187.684891 83.396561,186.530640 82.198074,185.164047 
	C85.653221,180.995056 87.998901,180.870819 92.204941,184.920471 
	C98.438232,190.922043 105.577980,194.437241 114.417526,194.220032 
	C122.704102,194.016403 129.328796,190.385330 135.054367,184.732773 
	C138.226501,181.601089 141.463882,180.716919 145.096313,184.568268 
z"/>
<path fill="#49E5D8" opacity="1.000000" stroke="none" 
	d="
M87.835907,111.713882 
	C81.355995,118.052292 74.967346,119.638008 68.156288,116.507713 
	C61.025295,113.230377 57.933422,107.397232 58.044041,99.656456 
	C58.127270,93.832306 57.993046,88.005035 58.077625,82.180923 
	C58.212620,72.884712 64.754280,65.755463 73.622543,65.109131 
	C82.308922,64.476067 90.439575,70.271614 91.082298,79.324608 
	C91.844154,90.055405 94.440742,101.252541 87.835907,111.713882 
z"/>
<path fill="#49E5D8" opacity="1.000000" stroke="none" 
	d="
M135.256165,85.238342 
	C135.057251,77.268684 137.336258,70.910576 144.211899,67.116592 
	C155.016678,61.154530 168.356232,68.699280 168.879196,81.098679 
	C169.166107,87.901146 169.069580,94.728935 168.900101,101.539185 
	C168.684311,110.208260 162.109665,117.163620 153.722092,117.906471 
	C145.002426,118.678734 137.191620,113.015114 135.912460,104.087799 
	C135.047775,98.053169 135.430832,91.839752 135.256165,85.238342 
z"/>
</svg>